<?xml version="1.0" standalone="no"?><!-- Generator: Gravit.io --><svg xmlns="http://www.w3.org/2000/svg" xmlns:xlink="http://www.w3.org/1999/xlink" style="isolation:isolate" viewBox="472.547 222.387 13 20" width="13" height="20"><defs><clipPath id="_clipPath_QheKURE4O4OT5xk8G7YJisZotgkYOOwR"><rect x="453.547" y="206.387" width="114.453" height="51.225"/></clipPath></defs><g clip-path="url(#_clipPath_QheKURE4O4OT5xk8G7YJisZotgkYOOwR)"><rect x="453.547" y="206.387" width="114.453" height="51.225" style="fill:rgb(151,151,151)" fill-opacity="0"/><g><path d=" M 485.364 222.961 C 484.376 222.615 483.314 222.427 482.209 222.427 C 476.926 222.427 472.636 226.717 472.636 232 C 472.636 237.283 476.926 241.573 482.209 241.573 C 483.314 241.573 484.376 241.385 485.364 241.039 C 481.628 239.735 478.946 236.178 478.946 232 C 478.946 227.822 481.628 224.265 485.364 222.961 Z " fill="rgb(255,255,255)"/></g><g><circle vector-effect="non-scaling-stroke" cx="553" cy="231.99999999999994" r="15" fill="rgb(255,255,255)"/><path d=" M 550.829 242.342 L 550.402 238.682 C 550.311 237.906 549.677 237.573 548.987 237.939 L 545.748 239.657 C 545.057 240.023 544.807 239.767 545.188 239.085 L 546.985 235.874 C 547.366 235.192 547.048 234.548 546.274 234.437 L 542.65 233.916 C 541.876 233.805 541.824 233.449 542.534 233.122 L 545.862 231.586 C 546.572 231.259 546.693 230.55 546.134 230.005 L 543.503 227.442 C 542.943 226.897 543.11 226.579 543.877 226.733 L 547.467 227.454 C 548.233 227.608 548.747 227.108 548.614 226.338 L 547.985 222.707 C 547.852 221.937 548.173 221.779 548.702 222.354 L 551.188 225.06 C 551.716 225.635 552.424 225.532 552.768 224.83 L 554.385 221.524 C 554.728 220.822 555.08 220.882 555.171 221.658 L 555.598 225.318 C 555.689 226.094 556.323 226.427 557.013 226.061 L 560.252 224.343 C 560.943 223.977 561.193 224.233 560.812 224.915 L 559.015 228.126 C 558.634 228.808 558.952 229.452 559.726 229.563 L 563.35 230.084 C 564.124 230.195 564.176 230.551 563.466 230.878 L 560.138 232.414 C 559.428 232.741 559.307 233.45 559.866 233.995 L 562.497 236.558 C 563.057 237.103 562.89 237.421 562.123 237.267 L 558.533 236.546 C 557.767 236.392 557.253 236.892 557.386 237.662 L 558.015 241.293 C 558.148 242.063 557.827 242.221 557.298 241.646 L 554.812 238.94 C 554.284 238.365 553.576 238.468 553.232 239.17 L 551.615 242.476 C 551.272 243.178 550.92 243.118 550.829 242.342 Z  M 548.277 232 C 548.277 229.472 550.33 227.419 552.858 227.419 C 555.387 227.419 557.44 229.472 557.44 232 C 557.44 234.528 555.387 236.581 552.858 236.581 C 550.33 236.581 548.277 234.528 548.277 232 Z " fill-rule="evenodd" fill="rgb(0,0,0)"/></g></g></svg>