<?xml version="1.0" standalone="no"?><!-- Generator: Gravit.io --><svg xmlns="http://www.w3.org/2000/svg" xmlns:xlink="http://www.w3.org/1999/xlink" style="isolation:isolate" viewBox="593.405 182.967 13 13" width="13" height="13"><defs><clipPath id="_clipPath_Xtpzkp2ZWo9uCEHh76P86N6VrRU1W03H"><rect x="472.636" y="163.967" width="152.676" height="77.606"/></clipPath></defs><g clip-path="url(#_clipPath_Xtpzkp2ZWo9uCEHh76P86N6VrRU1W03H)"><rect x="472.636" y="163.967" width="152.676" height="77.606" style="fill:rgb(151,151,151)" fill-opacity="0"/><g><path d=" M 485.364 222.961 C 484.376 222.615 483.314 222.427 482.209 222.427 C 476.926 222.427 472.636 226.717 472.636 232 C 472.636 237.283 476.926 241.573 482.209 241.573 C 483.314 241.573 484.376 241.385 485.364 241.039 C 481.628 239.735 478.946 236.178 478.946 232 C 478.946 227.822 481.628 224.265 485.364 222.961 Z " fill="rgb(255,255,255)"/></g><path d=" M 597.53 194.867 L 597.53 194.867 C 597.597 193.842 596.915 193.403 596.01 193.889 L 596.01 193.889 C 595.104 194.374 594.804 194.056 595.339 193.179 L 595.339 193.179 C 595.875 192.302 595.476 191.597 594.448 191.606 L 594.448 191.606 C 593.421 191.615 593.302 191.194 594.184 190.666 L 594.184 190.666 C 595.066 190.139 595.04 189.329 594.126 188.86 L 594.126 188.86 C 593.212 188.39 593.303 187.962 594.329 187.905 L 594.329 187.905 C 595.355 187.847 595.708 187.119 595.117 186.278 L 595.117 186.278 C 594.526 185.437 594.805 185.101 595.74 185.527 L 595.74 185.527 C 596.676 185.953 597.327 185.471 597.194 184.452 L 597.194 184.452 C 597.062 183.434 597.466 183.265 598.096 184.077 L 598.096 184.077 C 598.725 184.889 599.526 184.765 599.882 183.802 L 599.882 183.802 C 600.238 182.838 600.674 182.876 600.854 183.888 L 600.854 183.888 C 601.035 184.9 601.801 185.162 602.565 184.474 L 602.565 184.474 C 603.328 183.786 603.696 184.023 603.385 185.003 L 603.385 185.003 C 603.075 185.982 603.631 186.571 604.627 186.317 L 604.627 186.317 C 605.623 186.062 605.838 186.443 605.108 187.166 L 605.108 187.166 C 604.378 187.889 604.597 188.669 605.597 188.906 L 605.597 188.906 C 606.597 189.144 606.611 189.581 605.629 189.882 L 605.629 189.882 C 604.646 190.183 604.478 190.975 605.253 191.65 L 605.253 191.65 C 606.028 192.325 605.837 192.719 604.827 192.529 L 604.827 192.529 C 603.817 192.339 603.3 192.962 603.673 193.92 L 603.673 193.92 C 604.045 194.877 603.693 195.137 602.887 194.5 L 602.887 194.5 C 602.081 193.862 601.334 194.174 601.219 195.195 L 601.219 195.195 C 601.104 196.216 600.671 196.283 600.254 195.344 L 600.254 195.344 C 599.836 194.405 599.03 194.333 598.453 195.184 L 598.453 195.184 C 597.877 196.034 597.463 195.892 597.53 194.867 Z " fill="rgb(0,0,0)"/></g></svg>